<?xml version="1.0" encoding="utf-8"?><svg viewBox="0 0 14 16" xmlns="http://www.w3.org/2000/svg" xmlns:xlink="http://www.w3.org/1999/xlink"><style>:root>svg{display:none}:root>svg:target{display:block}</style><svg fill="none" viewBox="0 0 5 8" id="arrow" xmlns="http://www.w3.org/2000/svg"><path fill-rule="evenodd" clip-rule="evenodd" d="M.938 0l4 4-4 4L0 7.062 3.063 4 0 .937.938 0z" fill="#5B5E77"/></svg><svg version="1.1" id="check" x="0" y="0" viewBox="0 0 10 6" xml:space="preserve" xmlns="http://www.w3.org/2000/svg"><style>.bst0{fill:#fff}</style><path class="bst0" d="M1.6 2.6l-.9.8L3.5 6 9.3.8 8.4 0 3.5 4.4 1.6 2.6z"/></svg><svg fill="none" viewBox="0 0 8 12" id="sort_arrow" xmlns="http://www.w3.org/2000/svg"><path fill-rule="evenodd" clip-rule="evenodd" d="M3.344 12V2.562L.938 4.938 0 4l4-4 4 4-.938.938-2.406-2.375V12H3.344z" fill="#333"/></svg><svg fill="none" viewBox="0 0 14 16" id="trashcan" xmlns="http://www.w3.org/2000/svg"><path d="M12.233 1.884h-2.137V.496A.496.496 0 009.591 0c-.027 0-.045.01-.054.018A.069.069 0 009.501 0H4.408a.489.489 0 00-.495.496v1.388H1.767c-.613 0-1.09.478-1.09 1.09V4.76h.946v10.158c0 .613.469 1.082 1.082 1.082h8.59a1.07 1.07 0 001.09-1.082V4.76h.938V2.975c0-.613-.478-1.091-1.09-1.091zM4.904.992h4.192v.892H4.904V.992zm6.481 13.926c0 .064-.027.09-.09.09h-8.59c-.063 0-.09-.026-.09-.09V4.76h8.77v10.158zm.938-11.15H1.677v-.793c0-.063.027-.1.09-.1h10.466c.063 0 .09.037.09.1v.793z" fill="#5B5E77"/><path d="M9.817 5.922h-1v8.203h1V5.922zM7.51 5.922H6.508v8.203h1V5.922zM5.202 5.922H4.2v8.203h1V5.922z" fill="#5B5E77"/></svg></svg>